# xmcd
#
# Track frame offsets:
#  150
#  12964
#  27533
#  44345
#  57939
#  73003
#  88708
#  104294
#  118222
#  138845
#  157663
#  184757
#  196373
#  213910
#  227769
#  242227
#  258273
#
# Disc length: 3673 seconds
#
# Revision: 0
# Processed by: cddbd v1.5.2PL0 Copyright (c) Steve Scherf et al.
# Submitted via: AltoMP3_Maker 3.0
#
DISCID=e90e5711
DTITLE=Gypsies - Unforgettable
DYEAR=1900
DGENRE=
TTITLE0=Amma Amma
TTITLE1=Linda Langa Sangamaya
TTITLE2=Jaya mangalam
TTITLE3=Subha Upan Dinak
TTITLE4=Vasana
TTITLE5=Oba Langin Innam
TTITLE6=Mata Aithiya Kanduilai
TTITLE7=Oba Dutu Mul Dine
TTITLE8=Owath Wadada
TTITLE9=Gange Panninawa
TTITLE10=Sudu None
TTITLE11=Hina Hina
TTITLE12=Dana Dana Waradi Karanawa
TTITLE13=Nande mame
TTITLE14=A Hinda
TTITLE15=Mallika
TTITLE16=Kurumitto
EXTD=
EXTT0=
EXTT1=
EXTT2=
EXTT3=
EXTT4=
EXTT5=
EXTT6=
EXTT7=
EXTT8=
EXTT9=
EXTT10=
EXTT11=
EXTT12=
EXTT13=
EXTT14=
EXTT15=
EXTT16=
PLAYORDER=
